HIERARCHY
ROOT root
{
	OFFSET 0.000000 0.000000 0.000000
	CHANNELS 6 Xposition Yposition Zposition Zrotation Yrotation Xrotation
	JOINT lhip
	{
		OFFSET 0.058581 -0.082280 -0.017664
		CHANNELS 3 Zrotation Yrotation Xrotation
		JOINT lknee
		{
			OFFSET 0.043451 -0.386469 0.008037
			CHANNELS 3 Zrotation Yrotation Xrotation
			JOINT lankle
			{
				OFFSET -0.014790 -0.426874 -0.037428
				CHANNELS 3 Zrotation Yrotation Xrotation
				JOINT ltoe
				{
					OFFSET 0.041054 -0.060286 0.122042
					CHANNELS 3 Zrotation Yrotation Xrotation
					End Site
					{
						OFFSET 0.000000 0.000000 0.000000
					}
				}
			}
		}
	}
	JOINT rhip
	{
		OFFSET -0.060310 -0.090513 -0.013543
		CHANNELS 3 Zrotation Yrotation Xrotation
		JOINT rknee
		{
			OFFSET -0.043257 -0.383688 -0.004843
			CHANNELS 3 Zrotation Yrotation Xrotation
			JOINT rankle
			{
				OFFSET 0.019056 -0.420046 -0.034562
				CHANNELS 3 Zrotation Yrotation Xrotation
				JOINT rtoe
				{
					OFFSET -0.034840 -0.062106 0.130323
					CHANNELS 3 Zrotation Yrotation Xrotation
					End Site
					{
						OFFSET 0.000000 0.000000 0.000000
					}
				}
			}
		}
	}
	JOINT lowerback
	{
		OFFSET 0.004439 0.124404 -0.038385
		CHANNELS 3 Zrotation Yrotation Xrotation
		JOINT upperback
		{
			OFFSET 0.004488 0.137956 0.026820
			CHANNELS 3 Zrotation Yrotation Xrotation
			JOINT chest
			{
				OFFSET -0.002265 0.056032 0.002855
				CHANNELS 3 Zrotation Yrotation Xrotation
				JOINT lowerneck
				{
					OFFSET -0.013390 0.211636 -0.033468
					CHANNELS 3 Zrotation Yrotation Xrotation
					JOINT upperneck
					{
						OFFSET 0.010113 0.088937 0.050410
						CHANNELS 3 Zrotation Yrotation Xrotation
						End Site
						{
							OFFSET 0.000000 0.000000 0.000000
						}
					}
				}
				JOINT lclavicle
				{
					OFFSET 0.071702 0.114000 -0.018898
					CHANNELS 3 Zrotation Yrotation Xrotation
					JOINT lshoulder
					{
						OFFSET 0.122921 0.045205 -0.019046
						CHANNELS 3 Zrotation Yrotation Xrotation
						JOINT lelbow
						{
							OFFSET 0.255332 -0.015649 -0.022946
							CHANNELS 3 Zrotation Yrotation Xrotation
							JOINT lwrist
							{
								OFFSET 0.265709 0.012698 -0.007375
								CHANNELS 3 Zrotation Yrotation Xrotation
								End Site
								{
									OFFSET 0.000000 0.000000 0.000000
								}
							}
						}
					}
				}
				JOINT rclavicle
				{
					OFFSET -0.082954 0.112472 -0.023707
					CHANNELS 3 Zrotation Yrotation Xrotation
					JOINT rshoulder
					{
						OFFSET -0.113228 0.046853 -0.008472
						CHANNELS 3 Zrotation Yrotation Xrotation
						JOINT relbow
						{
							OFFSET -0.260127 -0.014369 -0.031269
							CHANNELS 3 Zrotation Yrotation Xrotation
							JOINT rwrist
							{
								OFFSET -0.269108 0.006794 -0.006027
								CHANNELS 3 Zrotation Yrotation Xrotation
								End Site
								{
									OFFSET 0.000000 0.000000 0.000000
								}
							}
						}
					}
				}
			}
		}
	}
}
MOTION
Frames: 10
Frame Time: 0.033333
0.330133 -0.143478 0.981154 126.804458 5.664163 86.104424 32.055001 14.948807 10.001026 4.403271 9.256096 27.922648 -28.328074 8.777802 28.224275 0.000000 -0.000000 0.000000 10.011248 12.448690 -17.793756 3.717520 7.938548 29.767378 7.023272 18.567680 -3.831076 0.000000 -0.000000 0.000000 -17.566583 -10.905843 14.271347 -2.427559 -23.849278 6.087921 -0.647177 -8.765330 -16.426539 -13.361497 58.529821 2.896369 -0.752133 30.386769 -0.254324 25.633876 -59.072475 -36.261127 -2.903174 -74.837623 -21.334895 12.442015 -28.106517 -5.434174 13.181010 -29.806453 -4.168997 -2.756023 17.945643 -12.847199 32.432968 30.757403 -4.013124 -110.112470 42.392187 -71.443077 -57.358243 14.324661 -3.858701 
0.329063 -0.143713 0.982125 126.593342 5.485684 86.273104 32.057596 14.971484 9.662439 3.841368 8.697635 28.272963 -28.624418 8.555135 28.326025 0.000000 -0.000000 0.000000 9.769323 12.333817 -18.053386 3.783856 8.244136 29.732158 7.467756 18.696645 -3.525647 0.000000 -0.000000 0.000000 -17.490004 -10.927348 14.636732 -2.417854 -23.890066 5.605437 -0.740765 -8.706063 -16.151100 -13.821185 58.745360 2.415213 -0.892696 30.500123 -0.427008 27.035725 -58.742029 -37.577677 0.088894 -74.905573 -23.827966 12.793028 -28.164928 -5.707241 13.807271 -29.779657 -3.886228 -3.683690 17.562652 -13.542458 31.503900 30.479042 -4.473238 -109.711433 42.042374 -71.338475 -57.483428 14.292366 -3.862041 
0.326385 -0.143802 0.983082 126.771540 5.356615 86.504673 32.067314 15.090572 8.903573 3.352055 8.316003 28.838345 -29.110762 8.382766 28.551096 0.000000 -0.000000 0.000000 9.302493 12.043973 -18.362943 3.840776 8.181937 29.420854 7.937704 18.752306 -3.724976 0.000000 -0.000000 0.000000 -17.467414 -10.717151 15.118838 -2.389044 -23.971765 5.432528 -0.640166 -8.759994 -16.102777 -13.608657 58.502123 2.536540 -0.849477 30.455057 -0.374442 27.741548 -58.689290 -38.229452 2.039876 -74.975189 -25.604982 13.034735 -27.933694 -5.726840 13.550924 -29.022817 -3.668573 -4.374485 17.470965 -13.863713 30.880847 30.061741 -4.994716 -108.989572 41.745294 -70.954020 -57.882424 13.589169 -4.698020 
0.321912 -0.143848 0.983974 127.286205 5.392958 86.723226 32.296405 15.317468 8.050974 3.058570 8.442772 29.341115 -29.463123 8.130033 28.635612 0.000000 -0.000000 0.000000 8.807736 11.685475 -18.708523 3.903112 7.793589 28.977756 8.332583 18.857186 -3.441054 0.000000 -0.000000 0.000000 -17.314813 -10.501216 15.908821 -2.220930 -23.997185 4.952051 -0.540134 -8.848488 -15.726862 -13.550976 58.519139 2.552418 -0.947002 30.257033 -0.431691 28.107111 -58.566755 -38.556401 3.053674 -74.922941 -26.445514 12.814677 -27.443468 -5.575808 13.579454 -28.383320 -3.068842 -4.699183 17.246049 -14.108669 30.664198 30.061412 -5.140570 -107.887549 41.835377 -70.798038 -58.296019 12.687379 -5.566424 
0.315548 -0.143761 0.984809 127.848725 5.352405 86.979381 32.422062 15.844570 7.251385 2.660512 8.371069 29.852789 -29.738291 7.353760 27.979068 0.000000 -0.000000 0.000000 8.157114 10.767072 -19.302472 3.862001 7.280044 28.761542 9.582451 19.475231 -2.457099 0.000000 -0.000000 0.000000 -17.239714 -10.156629 16.593200 -2.066748 -23.893593 4.600084 -0.438967 -8.880260 -15.334175 -13.284436 58.509628 2.767026 -0.916270 30.156359 -0.158574 27.844331 -58.159170 -38.276359 2.034384 -75.037551 -25.790540 12.797984 -26.897685 -4.984812 12.416683 -27.124110 -2.886569 -4.723416 17.051508 -14.154511 30.986038 30.524016 -5.065785 -106.272485 42.202565 -70.040446 -58.235878 10.991751 -6.825221 
0.307684 -0.143842 0.985301 128.549842 5.399121 87.322120 32.592331 16.277524 6.662600 2.206667 8.563571 29.911072 -30.266326 6.309344 26.996176 0.000000 -0.000000 0.000000 7.502638 10.141799 -19.878659 3.739887 6.659340 28.095244 11.259724 19.786776 -1.417283 0.000000 -0.000000 0.000000 -17.234734 -9.677821 17.095586 -1.919249 -23.773694 4.834488 -0.233384 -8.739939 -15.212571 -12.665811 58.575111 3.317008 -0.938044 29.522830 -0.284012 27.873907 -57.984800 -37.929474 -0.088748 -74.714363 -24.273673 12.831536 -26.221711 -4.904094 11.232912 -25.953751 -2.717319 -4.748981 17.315164 -14.021272 32.012363 30.905179 -4.646059 -104.536630 42.202294 -69.547432 -58.314493 9.198805 -7.962988 
0.297142 -0.144142 0.985673 129.859894 5.523750 87.658289 32.529346 16.424520 5.879287 1.528928 8.347705 29.828482 -30.296450 5.026003 24.666774 0.000000 -0.000000 0.000000 6.836996 9.515216 -20.437557 3.523626 5.792639 27.385491 11.812062 19.262768 -1.096384 0.000000 -0.000000 0.000000 -17.013439 -9.320297 18.029890 -1.698985 -23.587907 4.812425 -0.165416 -8.838099 -14.711430 -12.202084 58.444336 3.413057 -0.746210 29.174468 0.329439 26.819701 -57.816569 -37.159684 -2.448796 -74.816769 -21.807388 12.132956 -25.043560 -4.196139 10.329230 -24.768023 -3.084871 -4.323700 17.652910 -14.032739 33.413305 31.607540 -3.377789 -102.493434 42.133838 -68.843810 -58.626397 7.131939 -9.769559 
0.284653 -0.143985 0.986017 131.492589 5.554277 88.003116 31.967398 16.401539 5.241668 0.840578 8.178630 29.346969 -29.359218 3.214226 20.688894 0.000000 -0.000000 0.000000 5.966491 8.921450 -21.034754 3.283581 4.878260 26.790953 11.631363 18.352196 -1.221540 0.000000 -0.000000 0.000000 -16.779264 -8.898043 19.247461 -1.458243 -23.443852 4.625445 0.098718 -8.871956 -14.362077 -11.980954 58.174232 3.507124 -0.735497 29.009811 0.752564 25.861966 -58.007057 -36.121882 -6.226524 -74.221209 -18.533568 12.018224 -24.389319 -3.763194 8.760965 -23.571708 -2.924549 -3.827202 18.346367 -13.913635 35.534056 32.366966 -2.088809 -100.664298 41.658346 -68.250209 -56.702841 5.355011 -10.349606 
0.270048 -0.144741 0.986007 134.051369 5.649294 88.888948 31.129477 16.527282 3.643551 0.032494 8.551707 28.627081 -27.744346 1.756216 16.364904 0.000000 -0.000000 0.000000 4.925377 8.402119 -22.216394 2.965526 3.731402 26.072689 11.879196 16.862421 -0.763377 0.000000 -0.000000 0.000000 -16.455130 -8.604652 20.350451 -0.883689 -23.408552 4.095393 0.384765 -9.051554 -13.597576 -11.296204 57.620651 3.888220 -0.770469 28.706599 1.559761 24.414863 -57.928203 -34.587402 -10.442149 -74.177114 -15.071952 11.451119 -23.140051 -2.360471 7.723809 -22.301695 -2.823314 -2.911513 18.699760 -13.557964 38.020583 33.668416 -0.321248 -97.918745 41.011957 -66.491652 -55.626077 3.257444 -10.905529 
0.253234 -0.145652 0.985191 137.360589 5.619982 90.000980 29.978575 17.143089 1.578501 -0.323666 10.074652 27.891142 -26.213815 0.280848 12.122010 0.000000 -0.000000 0.000000 3.656484 7.429806 -23.612439 2.341737 2.171251 25.416638 12.842454 15.835752 0.532908 0.000000 -0.000000 0.000000 -15.722079 -8.600511 21.621728 -0.192056 -23.464379 3.657559 0.596652 -9.622457 -12.722184 -12.790148 56.938935 1.787496 -0.499330 28.244809 2.684300 23.099391 -56.150431 -33.462212 -18.467284 -75.028129 -8.865162 11.005060 -21.786112 -0.516128 6.665262 -20.924576 -3.877278 -2.053418 18.785214 -13.239090 41.804737 35.435167 2.056005 -95.758924 40.376747 -65.420301 -54.370298 1.578347 -13.313643 
